<?xml version="1.0" encoding="utf-8"?>
<!-- Generator: Adobe Illustrator 16.0.0, SVG Export Plug-In . SVG Version: 6.00 Build 0)  -->
<!DOCTYPE svg PUBLIC "-//W3C//DTD SVG 1.1//EN" "http://www.w3.org/Graphics/SVG/1.1/DTD/svg11.dtd">
<svg version="1.1" xmlns="http://www.w3.org/2000/svg" xmlns:xlink="http://www.w3.org/1999/xlink" x="0px" y="0px" width="60px"
	 height="60px" viewBox="0 0 60 60" enable-background="new 0 0 60 60" xml:space="preserve">
<g id="Layer_1">
</g>
<g id="txt">
	<linearGradient id="SVGID_2_" gradientUnits="userSpaceOnUse" x1="30" y1="58.4277" x2="30" y2="6.3544">
		<stop  offset="0" style="stop-color:#477256"/>
		<stop  offset="1" style="stop-color:#135D6B"/>
	</linearGradient>
	<rect fill="url(#SVGID_2_)" width="60" height="60"/>
	<g>
		<path fill="#FFFFFF" d="M47.678,49.463c0,1.09-0.877,1.974-1.959,1.974H14.283c-1.084,0-1.961-0.884-1.961-1.974v-27.47
			c0-1.09,0.877-1.974,1.961-1.974h31.436c1.082,0,1.959,0.884,1.959,1.974V49.463z"/>
		<g>
			<g>
				<path fill="none" stroke="#293F54" stroke-width="0.5669" stroke-miterlimit="10" d="M45.875,48.728c0,0.552-0.447,1-1,1H15.313
					c-0.552,0-1-0.448-1-1v-26c0-0.552,0.448-1,1-1h29.563c0.553,0,1,0.448,1,1V48.728z"/>
				
					<line fill="none" stroke="#293F54" stroke-width="0.5669" stroke-miterlimit="10" x1="14.125" y1="28.666" x2="45.813" y2="28.666"/>
				<circle fill="#00B1CC" cx="16.875" cy="25.291" r="0.813"/>
				<circle fill="#00B1CC" cx="20.875" cy="25.291" r="0.813"/>
				<circle fill="#00B1CC" cx="24.875" cy="25.291" r="0.813"/>
				<circle fill="#293F54" cx="30.25" cy="25.291" r="0.5"/>
				<circle fill="#293F54" cx="32.775" cy="25.291" r="0.5"/>
				<circle fill="#293F54" cx="35.301" cy="25.291" r="0.5"/>
				<circle fill="#293F54" cx="37.826" cy="25.291" r="0.5"/>
				<circle fill="#293F54" cx="40.351" cy="25.291" r="0.5"/>
				<circle fill="#293F54" cx="42.875" cy="25.291" r="0.5"/>
			</g>
			
				<path fill="#FFFFFF" stroke="#FFC500" stroke-width="0.4544" stroke-linecap="round" stroke-linejoin="round" stroke-miterlimit="10" d="
				M41.777,42.74c0,0.552-0.525,1-1.174,1H18.895c-0.648,0-1.174-0.448-1.174-1v-5.327c0-0.552,0.525-1,1.174-1h21.709
				c0.648,0,1.174,0.448,1.174,1V42.74z"/>
			<path fill="#FFC500" d="M40.143,41.739c0,0.33-0.441,0.597-0.99,0.597H20.855c-0.547,0-0.99-0.267-0.99-0.597v-3.182
				c0-0.33,0.443-0.597,0.99-0.597h18.297c0.549,0,0.99,0.267,0.99,0.597V41.739z"/>
			<g>
				<path fill="#293F54" d="M23.179,40.839l0.11-0.244c0.118,0.086,0.294,0.146,0.462,0.146c0.191,0,0.27-0.064,0.27-0.15
					c0-0.262-0.813-0.082-0.813-0.602c0-0.238,0.191-0.436,0.59-0.436c0.176,0,0.355,0.042,0.485,0.124l-0.1,0.246
					c-0.13-0.074-0.264-0.11-0.388-0.11c-0.192,0-0.266,0.072-0.266,0.16c0,0.258,0.813,0.08,0.813,0.594
					c0,0.234-0.194,0.434-0.594,0.434C23.526,41.001,23.303,40.935,23.179,40.839z"/>
				<path fill="#293F54" d="M24.554,40.361v-0.784h0.323v0.772c0,0.266,0.116,0.375,0.313,0.375c0.197,0,0.312-0.11,0.312-0.375
					v-0.772h0.319v0.784c0,0.412-0.235,0.64-0.634,0.64C24.789,41.001,24.554,40.773,24.554,40.361z"/>
				<path fill="#293F54" d="M27.424,40.595c0,0.242-0.192,0.382-0.56,0.382h-0.724v-1.399h0.684c0.35,0,0.529,0.146,0.529,0.364
					c0,0.14-0.071,0.248-0.186,0.308C27.324,40.299,27.424,40.419,27.424,40.595z M26.462,39.822v0.33h0.322
					c0.158,0,0.244-0.056,0.244-0.166c0-0.11-0.086-0.164-0.244-0.164H26.462z M27.098,40.562c0-0.118-0.09-0.174-0.258-0.174
					h-0.378v0.346h0.378C27.008,40.733,27.098,40.681,27.098,40.562z"/>
				<path fill="#293F54" d="M27.561,40.839l0.11-0.244c0.118,0.086,0.294,0.146,0.462,0.146c0.191,0,0.27-0.064,0.27-0.15
					c0-0.262-0.813-0.082-0.813-0.602c0-0.238,0.191-0.436,0.59-0.436c0.176,0,0.355,0.042,0.485,0.124l-0.1,0.246
					c-0.13-0.074-0.264-0.11-0.388-0.11c-0.192,0-0.266,0.072-0.266,0.16c0,0.258,0.813,0.08,0.813,0.594
					c0,0.234-0.194,0.434-0.594,0.434C27.908,41.001,27.685,40.935,27.561,40.839z"/>
				<path fill="#293F54" d="M28.859,40.277c0-0.422,0.323-0.724,0.76-0.724c0.241,0,0.443,0.088,0.575,0.248l-0.208,0.192
					c-0.094-0.108-0.212-0.164-0.352-0.164c-0.262,0-0.447,0.184-0.447,0.448c0,0.264,0.186,0.448,0.447,0.448
					c0.14,0,0.258-0.056,0.352-0.166l0.208,0.192c-0.132,0.162-0.334,0.25-0.577,0.25C29.183,41.001,28.859,40.699,28.859,40.277z"
					/>
				<path fill="#293F54" d="M31.305,40.977l-0.271-0.39h-0.016h-0.282v0.39h-0.323v-1.399h0.605c0.374,0,0.607,0.194,0.607,0.508
					c0,0.21-0.105,0.364-0.287,0.442l0.313,0.45H31.305z M31.001,39.842h-0.265v0.488h0.265c0.197,0,0.298-0.092,0.298-0.244
					C31.299,39.932,31.198,39.842,31.001,39.842z"/>
				<path fill="#293F54" d="M31.883,39.578h0.323v1.399h-0.323V39.578z"/>
				<path fill="#293F54" d="M33.822,40.595c0,0.242-0.192,0.382-0.56,0.382h-0.724v-1.399h0.684c0.35,0,0.529,0.146,0.529,0.364
					c0,0.14-0.071,0.248-0.186,0.308C33.723,40.299,33.822,40.419,33.822,40.595z M32.86,39.822v0.33h0.322
					c0.158,0,0.244-0.056,0.244-0.166c0-0.11-0.086-0.164-0.244-0.164H32.86z M33.496,40.562c0-0.118-0.09-0.174-0.258-0.174H32.86
					v0.346h0.378C33.406,40.733,33.496,40.681,33.496,40.562z"/>
				<path fill="#293F54" d="M35.152,40.717v0.26h-1.083v-1.399h1.058v0.26h-0.736v0.304h0.65v0.252h-0.65v0.324H35.152z"/>
				<path fill="#293F54" d="M35.343,40.811c0-0.102,0.08-0.178,0.192-0.178c0.111,0,0.191,0.076,0.191,0.178
					c0,0.1-0.08,0.182-0.191,0.182C35.423,40.993,35.343,40.911,35.343,40.811z M35.349,39.578h0.372l-0.062,0.914h-0.248
					L35.349,39.578z"/>
			</g>
			<g>
				<path fill="#FFC500" d="M23.801,34.172l-0.002-0.853l-0.418,0.702h-0.148l-0.416-0.684v0.834h-0.309v-1.42h0.272l0.531,0.883
					l0.524-0.883h0.27l0.004,1.42H23.801z"/>
				<path fill="#FFC500" d="M24.362,33.461c0-0.422,0.329-0.734,0.777-0.734c0.446,0,0.777,0.311,0.777,0.734
					c0,0.424-0.331,0.735-0.777,0.735C24.691,34.196,24.362,33.884,24.362,33.461z M25.584,33.461c0-0.27-0.19-0.455-0.444-0.455
					s-0.444,0.185-0.444,0.455c0,0.27,0.19,0.455,0.444,0.455S25.584,33.731,25.584,33.461z"/>
				<path fill="#FFC500" d="M27.472,32.751v1.42h-0.271l-0.708-0.862v0.862h-0.325v-1.42h0.272l0.706,0.862v-0.862H27.472z"/>
				<path fill="#FFC500" d="M28.106,33.019h-0.455v-0.268h1.238v0.268h-0.455v1.153h-0.328V33.019z"/>
				<path fill="#FFC500" d="M29.069,32.751h0.329v1.152h0.713v0.268h-1.042V32.751z"/>
				<path fill="#FFC500" d="M30.834,33.668v0.503h-0.329v-0.507l-0.55-0.913h0.349l0.38,0.631l0.38-0.631h0.322L30.834,33.668z"/>
				<path fill="#FFC500" d="M33.335,33.267c0,0.317-0.237,0.514-0.617,0.514h-0.286v0.392h-0.329v-1.42h0.615
					C33.098,32.751,33.335,32.948,33.335,33.267z M33.002,33.267c0-0.156-0.102-0.248-0.303-0.248h-0.268v0.493h0.268
					C32.9,33.512,33.002,33.421,33.002,33.267z"/>
				<path fill="#FFC500" d="M33.571,32.751H33.9v1.152h0.713v0.268h-1.042V32.751z"/>
				<path fill="#FFC500" d="M35.748,33.868h-0.659l-0.126,0.304h-0.337l0.634-1.42h0.324l0.636,1.42h-0.346L35.748,33.868z
					 M35.646,33.618l-0.226-0.544l-0.226,0.544H35.646z"/>
				<path fill="#FFC500" d="M37.675,32.751v1.42h-0.271l-0.708-0.862v0.862h-0.325v-1.42h0.272l0.706,0.862v-0.862H37.675z"/>
			</g>
			<g>
				
					<polyline fill="#FFFFFF" stroke="#293F54" stroke-width="0.4544" stroke-linecap="round" stroke-linejoin="round" stroke-miterlimit="10" points="
					41.541,43.955 42.611,42.886 38.041,41.661 39.266,46.231 40.336,45.161 				"/>
				<g>
					
						<line fill="#FFFFFF" stroke="#293F54" stroke-width="0.4544" stroke-linecap="round" stroke-linejoin="round" stroke-miterlimit="10" x1="41.221" y1="44.841" x2="42.559" y2="46.178"/>
				</g>
			</g>
		</g>
	</g>
	<path fill="#98C020" d="M29.011,7.008c0.309,0,0.575-0.107,0.8-0.324c0.199-0.191,0.304-0.392,0.313-0.6
		c0.009-0.141-0.046-0.281-0.163-0.418c-0.116-0.138-0.263-0.206-0.437-0.206c-0.3,0-0.573,0.1-0.819,0.3
		c-0.244,0.199-0.372,0.407-0.38,0.624C28.308,6.8,28.536,7.008,29.011,7.008z"/>
	<path fill="#FFFFFF" d="M37.515,11.228l-0.14-0.185c-0.095,0.108-0.214,0.225-0.361,0.348c-0.179,0.147-0.302,0.222-0.37,0.222
		c-0.094,0-0.154-0.02-0.178-0.06c-0.024-0.039-0.035-0.11-0.029-0.214c0-0.039,0.03-0.191,0.092-0.455
		c0.062-0.263,0.095-0.464,0.101-0.602c0.004-0.202-0.033-0.358-0.111-0.466C36.414,9.684,36.241,9.627,36,9.646
		c-0.281,0.025-0.574,0.136-0.88,0.333c-0.128,0.084-0.251,0.183-0.37,0.296c0.213-0.89,0.321-1.497,0.326-1.824
		c0.005-0.483-0.194-0.733-0.599-0.748c-0.458-0.016-0.794,0.243-1.006,0.776c0.089-0.04,0.174-0.06,0.251-0.06
		c0.064,0,0.131,0.04,0.2,0.118c0.103,0.124,0.146,0.313,0.125,0.57c-0.014,0.188-0.059,0.591-0.134,1.207
		c-0.016,0.154-0.032,0.296-0.046,0.428c-0.029,0.021-0.057,0.042-0.088,0.063c-0.374,0.249-0.716,0.374-1.022,0.374
		c-0.408,0-0.608-0.153-0.6-0.461c0.017-0.534,0.107-1.233,0.274-2.099h0.887c0.067,0,0.101-0.029,0.101-0.088l0.11-0.536
		c0.018-0.084-0.019-0.125-0.11-0.125h-0.837c0.199-0.949,0.337-1.607,0.411-1.974c0.017-0.066-0.033-0.1-0.148-0.1
		c-0.219,0-0.501,0.092-0.85,0.274c-0.375,0.2-0.58,0.4-0.612,0.6l-0.2,1.199h-0.513c-0.066,0-0.104,0.029-0.112,0.087l-0.112,0.537
		c-0.017,0.084,0.021,0.125,0.112,0.125h0.514c-0.126,0.723-0.222,1.32-0.285,1.796c-0.124,0.124-0.266,0.254-0.428,0.39
		c-0.299,0.249-0.507,0.374-0.623,0.374c-0.268,0-0.396-0.179-0.389-0.537c0.125-0.782,0.242-1.427,0.35-1.935
		c0.033-0.3-0.015-0.544-0.144-0.731c-0.129-0.187-0.33-0.269-0.604-0.243c-0.176,0.017-0.441,0.184-0.8,0.5
		c-0.266,0.241-0.533,0.482-0.8,0.724l0.288,0.338c0.232-0.176,0.374-0.263,0.424-0.263c0.15,0,0.225,0.108,0.225,0.324
		c0,0.042-0.081,0.351-0.243,0.924c-0.041,0.146-0.077,0.282-0.108,0.409c-0.375,0.26-0.856,0.531-1.446,0.815
		c0.301-0.991,0.466-1.915,0.499-2.772c0.026-0.69-0.282-1.045-0.923-1.062c-0.774-0.024-1.282,0.408-1.523,1.299
		c0.135-0.058,0.274-0.087,0.418-0.087c0.118,0,0.215,0.047,0.292,0.143c0.075,0.097,0.109,0.207,0.102,0.331
		c-0.009,0.325-0.175,0.673-0.497,1.043c-0.323,0.371-0.61,0.557-0.862,0.557c-0.176,0-0.261-0.15-0.252-0.45
		c0.009-0.158,0.063-0.479,0.162-0.962c0.091-0.457,0.137-0.766,0.137-0.924c0-0.274-0.07-0.497-0.211-0.668
		c-0.142-0.171-0.347-0.244-0.612-0.219c-0.184,0.017-0.454,0.184-0.812,0.5c-0.267,0.241-0.532,0.482-0.8,0.724l0.287,0.338
		c0.233-0.176,0.376-0.263,0.425-0.263c0.158,0,0.233,0.108,0.225,0.324c0,0.018-0.074,0.279-0.225,0.787
		c-0.149,0.508-0.228,0.887-0.236,1.137c-0.017,0.342,0.046,0.604,0.188,0.786c0.174,0.225,0.467,0.32,0.876,0.287
		c0.485-0.033,0.97-0.212,1.455-0.537c0.201-0.133,0.393-0.287,0.576-0.462c-0.066,0.333-0.146,0.616-0.236,0.85
		c-0.9,0.408-1.549,0.758-1.948,1.049c-0.566,0.407-0.87,0.845-0.911,1.311c-0.076,0.808,0.332,1.212,1.223,1.212
		c0.6,0,1.179-0.366,1.736-1.1c0.475-0.623,0.887-1.456,1.236-2.497c0.605-0.3,1.116-0.594,1.535-0.882
		c-0.014,0.097-0.022,0.183-0.024,0.258c-0.009,0.267,0.057,0.482,0.193,0.649c0.138,0.167,0.335,0.25,0.594,0.25
		c0.557,0,1.116-0.242,1.674-0.725c0.162-0.143,0.31-0.292,0.444-0.448c-0.007,0.107-0.01,0.199-0.009,0.273
		c0.009,0.6,0.358,0.899,1.05,0.899c0.565,0,1.174-0.242,1.823-0.725c0.089-0.065,0.17-0.13,0.248-0.194c0,0.003,0,0.007,0,0.01
		c-0.01,0.237,0.045,0.425,0.162,0.563c0.148,0.167,0.389,0.246,0.725,0.237c-0.044-0.104-0.062-0.297-0.051-0.577
		c0.009-0.32,0.121-0.624,0.334-0.909c0.193-0.262,0.373-0.392,0.537-0.392c0.108,0,0.158,0.091,0.148,0.273
		c-0.006,0.118-0.034,0.289-0.086,0.514c-0.051,0.224-0.079,0.417-0.085,0.58c-0.005,0.158,0.034,0.286,0.115,0.384
		c0.081,0.1,0.197,0.148,0.351,0.148c0.33,0,0.66-0.143,0.991-0.429C37.188,11.726,37.377,11.488,37.515,11.228z M23.642,14.039
		c-0.134,0-0.195-0.059-0.187-0.175c0.016-0.217,0.39-0.504,1.122-0.862C24.195,13.693,23.884,14.039,23.642,14.039z"/>
</g>
</svg>
